<svg width="84" height="50" viewBox="0 0 84 50" fill="none" xmlns="http://www.w3.org/2000/svg">
<path fill-rule="evenodd" clip-rule="evenodd" d="M10.4923 48.2091C9.33969 49.3618 7.77637 50.0093 6.14627 50.0093C4.51618 50.0093 2.95285 49.3618 1.8002 48.2091C0.647552 47.0565 0 45.4932 0 43.8631C0 42.233 0.647552 40.6697 1.8002 39.517L22.2743 19.049L22.3173 19.006C23.9902 17.3676 26.2385 16.4499 28.58 16.4499C30.9215 16.4499 33.1698 17.3676 34.8426 19.006L34.8856 19.049L45.3346 29.498L59.7519 14.2514L53.3633 7.86286C52.7198 7.21855 52.2817 6.398 52.1043 5.50484C51.9268 4.61167 52.0181 3.68596 52.3664 2.84461C52.7148 2.00327 53.3047 1.28403 54.0616 0.777733C54.8185 0.271439 55.7084 0.000800951 56.6191 0H79.0589C80.2808 0 81.4527 0.485393 82.3167 1.3494C83.1807 2.21341 83.6661 3.38525 83.6661 4.60714V27.0409C83.6653 27.9515 83.3946 28.8414 82.8883 29.5983C82.382 30.3552 81.6628 30.9451 80.8214 31.2935C79.9801 31.6418 79.0544 31.7331 78.1612 31.5556C77.2681 31.3782 76.4475 30.9401 75.8032 30.2966L68.4441 22.9374L51.8338 40.5121L51.6679 40.678C49.9951 42.3164 47.7468 43.2341 45.4053 43.2341C43.0637 43.2341 40.8154 42.3164 39.1426 40.678L39.0996 40.635L28.5769 30.1184L10.4923 48.2091Z" fill="#A3A3A3"/>
</svg>
