<svg width="556" height="569" viewBox="0 0 556 569" fill="none" xmlns="http://www.w3.org/2000/svg">
<path d="M164.728 246.856H165.768V247.116V250.753V251.013H166.807V251.273V258.029V258.289H167.846V258.549V264.265V264.525H168.886V264.785V269.462V269.722H169.925V269.982V274.659V274.919H170.964V275.179V278.817V279.077H172.004V279.336V282.974V283.234H173.043V283.494V286.092V286.352H174.083V286.612V289.21V289.47H175.122V289.73V292.329V292.588H176.161V292.848V295.447V295.707H177.201V295.966V298.565V298.825H178.24V300.904H179.279V301.163V303.762V304.022H180.319V306.1H181.358V308.179H182.398V310.258H183.437V312.337H184.476V314.415H185.516V316.494H186.555C186.555 316.754 186.555 317.36 186.555 318.313V318.573H187.595V320.652H188.634V321.691H189.673C189.673 321.951 189.673 322.557 189.673 323.51V323.77H190.713V325.849H191.752V326.888H192.791V328.967H193.831V330.006H194.87V332.085H195.91V333.124H196.949V334.164H197.988V336.242H199.028V337.282H200.067V338.321H201.106V339.361H202.146V341.439H203.185V342.479H204.225V343.518H205.264V344.558H206.303V345.597H207.343V346.636H208.382V347.676H209.422V348.715H210.461V349.754H211.5V350.794H212.54V351.833H213.579V352.873H214.618V353.912H215.658V354.951H216.697V355.991H217.737V357.03H218.776V358.069H220.855V359.109H221.894V360.148H222.934V361.188H223.973V362.227H226.052V363.266H227.091V364.306H229.17V365.345H230.209V366.385H232.288V367.424H233.327V368.463H235.406V369.503H236.445V370.542H238.524V371.581H240.603V372.621H242.682V373.66H244.761V374.7H246.839V375.739H248.918V376.778H250.997V377.818H253.076V378.857H253.335H255.934H256.194V379.897H256.454H259.052H259.312V380.936H259.572H262.17H262.43V381.975H262.69H265.288H265.548V383.015H265.808H269.446H269.706V384.054H269.966H273.603H273.863V385.093H274.123H278.8H279.06V386.133H279.32H287.115H287.375V387.172H287.635H311.021H311.281V388.212H310.242V389.251H308.163V390.29H306.084V391.33H305.824H303.226H302.966V392.369H302.706H300.108H299.848V393.408H299.588H296.989H296.73V394.448H296.47H291.792H291.533V395.487H291.273H286.596H286.336V396.527H286.076H277.241H276.981V397.566H276.721H265.808H265.548V396.527H265.288H256.454H256.194V395.487H255.934H251.257H250.997V394.448H250.737H247.099H246.839V393.408H246.579H242.942H242.682V392.369H242.422H239.823H239.564V391.33H239.304H236.705H236.445V390.29H236.186H233.587H233.327V389.251H231.249V388.212H229.17V387.172H228.91H226.311H226.052V386.133C225.792 386.133 225.185 386.133 224.233 386.133H223.973V385.093H221.894V384.054H220.855V383.015C220.595 383.015 219.989 383.015 219.036 383.015H218.776V381.975H216.697V380.936H215.658V379.897C215.398 379.897 214.792 379.897 213.839 379.897H213.579V378.857H211.5V377.818H210.461V376.778H209.422V375.739H207.343V374.7H206.303V373.66H205.264V372.621H203.185V371.581H202.146V370.542H201.106V369.503H200.067V368.463H199.028V367.424H197.988V366.385H196.949V365.345H194.87V364.306H193.831V363.266H192.791V361.188H191.752V360.148H190.713V359.109H189.673V358.069H188.634V357.03H187.595V355.991H186.555V354.951H185.516V353.912H184.476V351.833H183.437V350.794H182.398V349.754H181.358V347.676H180.319V346.636H179.279V344.558H178.24V343.518H177.201V341.439H176.161V340.4H175.122V338.321H174.083V336.242H173.043V334.164H172.004V332.085H170.964V330.006H169.925V327.927H168.886V325.849H167.846V325.589V322.99V322.731H166.807V322.471V319.872V319.612H165.768V319.353V316.754V316.494H164.728V316.234V313.636V313.376H163.689V313.116V309.478V309.219H162.649V308.959V305.321V305.061H161.61V304.801V300.124V299.864H160.571V299.604V292.848V292.588H159.531V292.329V267.903V267.643H160.571V267.383V260.628V260.368H161.61V260.108V255.431V255.171H162.649V254.911V251.273V251.013H163.689V250.753V248.155V247.895H164.728V246.856Z" fill="white" stroke="white" stroke-width="1.03938"/>
<path d="M34.8191 152.269H35.8585V152.529V155.127V155.387H36.8979V155.647V158.245V158.505H37.9373V158.765V161.363V161.623H38.9766V163.702H40.016V165.781H41.0554V167.86H42.0948V169.938H43.1342V172.017H44.1735C44.1735 172.277 44.1735 172.883 44.1735 173.836V174.096H45.2129V176.175H46.2523V177.214H47.2917C47.2917 177.474 47.2917 178.08 47.2917 179.033V179.293H48.3311V181.371H49.3705V182.411H50.4098V184.49H51.4492V185.529H52.4886V187.608H53.528V188.647H54.5674V189.687H55.6067V191.765H56.6461V192.805H57.6855V193.844H58.7249V195.923H59.7643V196.962H60.8037V198.002H61.843V200.08H62.8824V201.12H63.9218V202.159H64.9612V203.198H66.0006V205.277H67.0399V206.317H68.0793V207.356H69.1187V208.395H70.1581V209.435H71.1975V211.514H72.2368V212.553H73.2762V213.592H74.3156V214.632H75.355V215.671H76.3944V216.71H77.4338V218.789H78.4731V219.829H79.5125V220.868H80.5519V221.907H81.5913V222.947H82.6307V223.986H83.67V225.025H84.7094V226.065H85.7488V227.104H86.7882V228.144H87.8276V229.183H88.8669V231.262H89.9063V232.301H90.9457V233.341H91.9851V234.38H93.0245V235.419H94.0639V236.459H95.1032V237.498H96.1426V238.537H97.182V239.577H98.2214V240.616H99.2608V241.656H100.3V242.695H101.34V243.734H102.379V244.774H103.418V245.813H104.458V246.852H105.497V247.892H106.536V248.931H107.576V249.971H108.615V251.01H109.655V252.049H110.694V253.089H111.733V254.128H112.773V255.168H113.812V256.207H114.851V257.246H115.891V258.286H116.93V259.325H117.97V260.364H119.009V261.404H120.048V262.443H121.088V263.483H122.127V264.522H123.167V265.561H124.206V266.601H125.245V267.64H126.285L126.285 268.68H127.324V269.719H129.403V270.758H130.442V271.798H131.482V272.837H132.521V273.876H133.56V274.916H134.6V275.176V279.853V280.113H133.56V280.373V307.916V308.176H134.6V308.436V316.231V316.491H135.639V316.751V321.428V321.688H136.678V321.948V326.625V326.885H137.718V327.145V330.783V331.042H138.757V331.302V333.901V334.161H139.797V334.42V338.058V338.318H140.836V340.397H141.875V340.657V343.255V343.515H142.915V343.775V346.373V346.633H143.954V348.712H144.994V350.791H146.033V351.05V353.649V353.909H147.072V355.988H148.112C148.112 356.247 148.112 356.854 148.112 357.806V358.066H149.151V360.145H150.19V361.184H151.23V363.263H152.269C152.269 363.523 152.269 364.129 152.269 365.082V365.342H153.309V367.421H154.348V368.46H155.387V370.539H156.427V371.578H157.466V373.657H158.506V374.696H159.545V376.775H160.584V377.815H161.624V378.854H162.663V380.933H163.702V381.972H164.742V383.011H165.781V384.051H166.821L166.821 385.09H167.86V387.169H168.899V388.208H169.939V389.248H170.978V390.287H172.017V391.326H173.057V392.366H174.096V393.405H175.136V394.445H176.175V395.484H177.214V396.523H178.254V397.563H179.293V398.602H180.333V399.642H182.411V400.681H183.451V401.72H184.49V402.76H185.529V403.799H186.569V404.838H188.648V405.878H189.687V406.917H190.726V407.957H192.805V408.996H193.844V410.035H195.923V411.075H196.963V412.114H199.041V413.153H200.081V414.193C200.341 414.193 200.947 414.193 201.9 414.193H202.16V415.232H204.238V416.272H205.278V417.311H207.356V418.35H209.435V419.39H211.514V420.429H213.593V421.469H215.671V422.508H217.75V423.547H218.01H220.609H220.868V424.587H222.947V425.626H223.207H225.805H226.065V426.665H226.325H228.924H229.183V427.705H229.443H232.042H232.302V428.744H232.561H235.16H235.42V429.784H235.68H239.317H239.577V430.823H239.837H243.475H243.735V431.862H243.995H249.711H249.971V432.902H250.231H256.987H257.247V433.941H257.507H290.247H290.507V432.902H290.767H297.523H297.783V431.862H298.042H302.72H302.98V430.823H303.239H307.917H308.176V429.784H308.436H311.035H311.295V428.744H311.554H315.192H315.452V427.705H315.712H318.31H318.57V426.665H319.61V427.705H321.688V428.744H322.728V429.784H323.767V430.823H325.846V431.862H326.885V432.902H327.925V433.941H330.003V434.981H331.043V436.02H332.082V437.059H334.161V438.099H335.2V439.138H336.24V440.177H338.318V441.217H339.358V442.256H340.397V443.296H341.437V444.335H343.515V445.374H344.555V446.414H345.594V447.453H347.673V448.492H348.712V449.532H349.752V450.571H351.83V451.611H352.87V452.65H353.909V453.689H355.988V454.729H357.027V455.768H358.067V456.808H360.145V457.847H361.185V458.886H362.224V459.926H364.303V460.965H365.342V462.004H366.382V463.044H368.461V464.083H369.5V465.123H370.539V466.162H372.618V467.201H373.657V468.241H374.697V469.28H376.776V470.319H377.815V471.359H378.854V472.398H380.933V473.438H381.972V474.477H383.012V475.516H385.091V476.556H386.13V477.595H387.169V478.635H389.248V479.674H390.288V480.713H392.366V481.753H393.406V482.792H394.445V483.831H396.524V484.871H397.563V485.91H398.603V486.95H400.681V487.989H401.721V489.028H402.76V490.068H404.839V491.107H405.878V492.146H406.918V493.186H408.996V494.225H410.036V495.265H411.075V496.304H413.154V497.343H414.193V498.383H415.233V499.422H417.311V500.462H418.351V501.501H419.39V502.54H421.469V503.58H422.508V504.619H424.587V505.658H425.627V506.698H426.666V507.737H428.745V508.777H429.784V509.816H430.823V510.855H432.902V511.895H433.942V512.934H434.981V513.973H437.06V515.013H438.099V516.052H439.138V517.092H441.217V518.131H440.178V519.17H438.099V520.21H437.06V521.249H434.981V522.289H433.942V523.328H431.863V524.367H430.823V525.407C430.564 525.407 429.957 525.407 429.005 525.407H428.745V526.446H426.666V527.485H425.627V528.525C425.367 528.525 424.76 528.525 423.808 528.525H423.548V529.564H421.469V530.604H420.43V531.643H418.351V532.682H416.272V533.722H414.193V534.761H412.115V535.8C411.855 535.8 411.248 535.8 410.296 535.8H410.036V536.84H407.957V537.879H406.918V538.919H406.658H404.059H403.8V539.958H401.721V540.997H399.642V542.037H397.563V543.076H395.484V544.116H393.406V545.155H393.146H390.547H390.288V546.194H388.209V547.234H387.949H385.35H385.091V548.273H383.012V549.312H382.752H380.154H379.894V550.352H379.634H377.035H376.776V551.391H374.697V552.431H374.437H371.839H371.579V553.47H371.319H368.72H368.461V554.509H368.201H365.602H365.342V555.549H365.083H361.445H361.185V556.588H360.925H358.327H358.067V557.627H357.807H354.169H353.909V558.667H353.649H351.051H350.791V559.706H350.531H346.893H346.634V560.746H346.374H341.696H341.437V561.785H341.177H336.5H336.24V562.824H335.98H331.303H331.043V563.864H330.783H325.066H324.807V564.903H324.547H317.791H317.531V565.943H317.271H309.476H309.216V566.982H308.956H294.924H294.664V568.021H294.405H267.9H267.641V566.982H267.381H253.349H253.089V565.943H252.829H245.034H244.774V564.903H244.514H237.758H237.498V563.864H237.239H231.522H231.262V562.824H231.002H226.325H226.065V561.785H225.805H221.128H220.868V560.746H220.609H215.931H215.671V559.706H215.412H211.774H211.514V558.667H211.254H208.656H208.396V557.627H208.136H204.498H204.238V556.588H203.978H201.38H201.12V555.549H200.86H197.222H196.963V554.509H196.703H194.104H193.844V553.47H193.585H190.986H190.726V552.431H190.466H187.868H187.608V551.391H187.348H184.75H184.49V550.352H182.411V549.312H182.151H179.553H179.293V548.273H177.214V547.234H176.955H174.356H174.096V546.194H172.017V545.155H171.758H169.159H168.899V544.116H166.821V543.076H164.742V542.037H162.663V540.997H160.584V539.958H160.324H157.726H157.466V538.919C157.206 538.919 156.6 538.919 155.647 538.919H155.387V537.879H153.309V536.84H152.269V535.8H150.19V534.761H148.112V533.722H146.033V532.682C145.773 532.682 145.167 532.682 144.214 532.682H143.954V531.643H141.875V530.604H140.836V529.564C140.576 529.564 139.97 529.564 139.017 529.564H138.757V528.525H136.678V527.485H135.639V526.446C135.379 526.446 134.773 526.446 133.82 526.446H133.56V525.407H131.482V524.367H130.442V523.328H128.363V522.289H127.324V521.249H125.245V520.21H124.206V519.17H122.127V518.131H121.088V517.092H119.009V516.052H117.97V515.013H116.93V513.973H114.851V512.934H113.812V511.895H112.773V510.855H110.694V509.816H109.655V508.777H108.615V507.737H106.536V506.698H105.497V505.658H104.458V504.619H103.418V503.58H101.34V502.54H100.3V501.501H99.2608V500.462H98.2214L98.2214 499.422H97.182V498.383H96.1426V497.343H94.0639V496.304H93.0245V495.265H91.9851V494.225H90.9457V493.186H89.9063V492.146H88.8669V491.107H87.8276V490.068H86.7882V489.028H85.7488V487.989H84.7094V486.95H83.67V485.91H82.6307V484.871H81.5913V483.831H80.5519V482.792H79.5125V481.753H78.4731V480.713H77.4338V479.674H76.3944V478.635H75.355V477.595H74.3156V476.556H73.2762V475.516H72.2368V474.477H71.1975V472.398H70.1581V471.359H69.1187V470.319H68.0793V469.28H67.0399V468.241H66.0006V467.201H64.9612V465.123H63.9218V464.083H62.8824V463.044H61.843V462.004H60.8037V459.926H59.7643V458.886H58.7249V457.847H57.6855V456.808H56.6461V454.729H55.6067V453.689H54.5674V451.611H53.528V450.571H52.4886V449.532H51.4492V447.453H50.4098V446.414H49.3705V444.335H48.3311V443.296H47.2917L47.2917 441.217H46.2523V440.177H45.2129V438.099H44.1735V437.059H43.1342V434.981H42.0948V433.941H41.0554V431.862H40.016C40.016 431.603 40.016 430.996 40.016 430.043V429.784H38.9766V427.705H37.9373V426.665H36.8979V424.587H35.8585C35.8585 424.327 35.8585 423.721 35.8585 422.768V422.508H34.8191V420.429H33.7797V419.39H32.7404V417.311H31.701V415.232H30.6616L30.6616 413.153H29.6222V411.075H28.5828V408.996H27.5434V408.736V406.138V405.878H26.5041V403.799H25.4647V401.72H24.4253V399.642H23.3859V397.563H22.3465V397.303V394.704V394.445H21.3072V392.366H20.2678V392.106V389.508V389.248H19.2284V387.169H18.189V386.909V384.311V384.051H17.1496V383.791V381.193V380.933H16.1103V380.673V378.074V377.815H15.0709V377.555V374.956V374.696H14.0315V374.437V371.838V371.578H12.9921V371.318L12.9921 368.72V368.46H11.9527V368.2V364.562V364.303H10.9133V364.043V361.444V361.184H9.87396V360.925V357.287V357.027H8.83458V356.767V353.129V352.869H7.7952V352.61V348.972V348.712H6.75582V348.452L6.75582 343.775V343.515H5.71644V343.255V338.578V338.318H4.67706V338.058L4.67706 332.342V332.082H3.63768V331.822L3.63768 325.066V324.806H2.59829V324.546L2.59829 316.751V316.491H1.55891V316.231L1.55891 304.278V304.018H0.519531V303.759L0.519531 271.018V270.758H1.55891V270.498L1.55891 257.506V257.246H2.59829V256.986L2.59829 249.191V248.931H3.63768V248.671V242.955L3.63768 242.695H4.67706V242.435V236.719V236.459H5.71644V236.199L5.71644 231.522V231.262H6.75582V231.002V226.325V226.065H7.7952V225.805V222.167V221.907H8.83458V221.647V218.01V217.75H9.87396V217.49V213.852V213.592H10.9133V213.332V209.695V209.435H11.9527V209.175V206.576V206.317H12.9921V206.057V203.458V203.198H14.0315V202.939V200.34V200.08H15.0709V199.82V197.222V196.962H16.1103V196.702L16.1103 194.104V193.844H17.1496V193.584V190.986V190.726H18.189V190.466V187.868V187.608H19.2284V185.529H20.2678V185.269V182.671V182.411H21.3072L21.3072 180.332H22.3465V180.072V177.474V177.214H23.3859V175.135H24.4253V173.056H25.4647V172.797V170.198V169.938H26.5041V167.86H27.5434V165.781H28.5828V163.702H29.6222V161.623H30.6616V159.544H31.701V157.466H32.7404V155.387H33.7797V153.308H34.8191V152.269Z" fill="white" stroke="white" stroke-width="1.03938"/>
<path d="M124.216 0.519775H124.476L510.606 0.519775H510.866V1.55916H511.126L515.803 1.55916L516.063 1.55916V2.59854H516.323H518.921H519.181V3.63792H519.441L522.04 3.63792H522.299V4.6773H524.378V5.71668L526.457 5.71668V6.75606C526.717 6.75606 527.323 6.75606 528.276 6.75606H528.536V7.79544H530.615V8.83483H531.654V9.87421H533.733V10.9136H534.772V11.953H535.811V12.9924H536.851V14.0317H537.89V15.0711H538.93V16.1105H539.969V17.1499H541.008V18.1893H542.048V19.2286H543.087V20.268H544.126V22.3468H545.166V23.3862H546.205V24.4255H547.245V26.5043H548.284V28.5831H549.323V30.6618H550.363V30.9217V33.5201V33.78H551.402V35.8587H552.442V36.1186V39.7564V40.0163H553.481V40.2761V44.9533V45.2132H554.52V45.473V516.832V517.092H553.481V517.352V522.029V522.289H552.442V522.549V525.147V525.407H551.402V525.667V528.266V528.525H550.363V528.785V531.384V531.644H549.323C549.323 531.903 549.323 532.51 549.323 533.463V533.722H548.284V535.801H547.245V536.841H546.205V538.919H545.166V539.959H544.126V540.998H543.087V543.077H542.048V544.116H541.008V545.156H539.969V546.195H538.93V547.234H537.89V548.274H536.851V549.313H535.811V550.352H533.733V551.392H532.693V552.431H531.654V553.471H529.575V554.51H527.496V555.549H525.418V556.589H523.339V557.628H521.26V558.668H521H518.402H518.142V559.707H517.882H514.244H513.984V560.746H513.725H509.047H508.788V561.786H508.528H502.811H502.551V560.746H500.472V559.707H499.433V558.668H498.394V557.628H497.354V556.589H496.315V555.549H495.276V554.51H494.236V553.471H493.197V552.431H492.157V551.392H491.118V550.352H490.079V549.313H489.039V548.274H488V547.234H486.96V546.195H484.882V545.156H483.842V544.116H482.803V543.077H481.764V542.037H480.724V540.998H479.685V539.959H478.645V538.919H477.606V537.88H476.567V536.841H475.527V535.801H474.488V534.762H473.449V533.722H472.409V532.683H471.37V531.644H470.33V530.604H469.291V529.565H468.252V528.525H466.173V527.486H465.133V526.447H464.094V525.407H463.055V524.368H462.015V523.329H460.976V522.289H459.937V521.25H458.897V520.21H457.858V519.171H456.818V518.132H455.779V517.092H454.74V516.053H453.7V515.014H452.661V513.974H451.622V512.935H450.582V511.895H449.543V510.856H448.503V509.817H447.464V508.777H446.425V507.738H445.385V506.698H443.306V505.659H442.267V504.62H441.228V503.58H440.188V502.541H439.149V501.502H438.11V500.462H437.07V499.423H436.031V498.383H434.991V497.344H433.952V496.305H432.913V495.265H431.873V494.226H430.834V493.186H429.795V492.147H428.755V491.108H427.716V490.068H426.676V489.029H425.637V487.99H424.598V486.95H423.558V485.911H422.519V484.871H421.479V483.832H420.44V482.793H419.401V481.753H418.361V480.714H417.322V479.675H415.243V478.635H414.204V477.596H413.164V476.556H412.125V475.517H411.086V474.478H410.046V473.438H409.007V472.399H407.968V471.359H406.928V470.32H405.889V469.281H404.849V468.241H403.81V467.202H402.771V466.163H401.731V465.123H400.692L400.692 464.084H399.652V463.044H398.613V462.005H397.574V460.966H396.534V459.926H395.495V458.887H394.456V457.848H393.416V456.808H392.377V455.769H391.337V454.729H390.298V453.69H389.259V452.651H388.219V451.611H387.18V450.572H386.141V449.532H385.101V448.493H384.062V447.454H383.022V446.414H381.983V445.375H380.944V444.336H379.904V443.296H378.865V442.257H377.825V441.217H376.786V440.178H375.747V439.139H374.707V438.099H373.668V437.06H372.629V436.021H371.589V434.981H370.55V433.942H369.51V432.902H368.471V431.863H367.432V430.824H366.392V429.784H365.353V428.745H364.314V427.705H362.235V426.666H361.195V425.627H360.156V424.587H359.117V423.548H358.077V422.509H357.038V421.469H355.998V420.43H354.959V419.39H353.92V418.351H352.88V417.312H351.841V416.272H350.802V415.233H349.762V414.194H348.723V413.154H347.683V412.115H346.644V411.075H345.605V410.036H344.565V408.997H343.526V407.957H342.486V406.918H341.447V405.878H340.408V404.839H341.447V403.8H343.526V402.76H344.565V401.721H346.644V400.682H347.683V399.642H348.723V398.603H350.802V397.563H351.841V396.524H352.88V395.485H354.959V394.445H355.998V393.406H357.038V392.367H358.077V391.327H359.117V390.288H360.156V389.248H362.235V388.209H363.274V387.17H364.314V386.13H365.353V385.091H366.392V384.051H367.432V383.012H368.471V381.973H369.51V380.933H370.55V378.855H371.589V377.815H372.629V376.776H373.668V375.736H374.707V374.697H375.747V372.618H376.786V371.579H377.825V370.54H378.865V369.5H379.904V367.421H380.944V366.382H381.983V364.303H383.022V363.264H384.062V361.185H385.101V360.146H386.141C386.141 359.886 386.141 359.28 386.141 358.327V358.067H387.18V355.988H388.219V354.949H389.259V352.87H390.298V350.791H391.337V348.712H392.377V346.634H393.416V344.555H394.456V342.476H395.495V340.397H396.534V340.138V337.539V337.279H397.574V335.201H398.613V334.941V332.342V332.082H399.652V331.823V329.224V328.964H400.692V328.704V326.106V325.846H401.731V325.586V321.948V321.689H402.771V321.429V317.791V317.531H403.81V317.271V312.594V312.334H404.849V312.074V306.358V306.098H405.889V305.838V297.003V296.743H406.928V296.484V275.176V274.916H405.889V274.657V265.822V265.562H404.849V265.302V259.586V259.326H403.81V259.066V254.389V254.129H402.771V253.869V250.231V249.971H401.731V249.711V246.074V245.814H400.692V245.554V242.955V242.696H399.652V242.436V239.837V239.577H398.613V239.318V236.719V236.459H397.574V234.381H396.534V234.121V231.522V231.262H395.495V229.184H394.456V227.105H393.416V225.026H392.377V222.947H391.337V220.869H390.298V218.79H389.259C389.259 218.53 389.259 217.924 389.259 216.971V216.711H388.219V214.632H387.18V213.593H386.141C386.141 213.333 386.141 212.727 386.141 211.774V211.514H385.101V209.435H384.062V208.396H383.022V206.317H381.983V205.278H380.944V204.239H379.904V202.16H378.865V201.12H377.825V200.081H376.786V198.002H375.747V196.963H374.707V195.923H373.668V194.884H372.629V193.845H371.589V191.766H370.55V190.727H369.51V189.687H368.471V188.648H367.432V187.608H366.392V186.569H365.353V185.53H364.314V184.49H363.274V183.451H362.235V182.411H361.195V181.372H360.156V180.333H358.077V179.293H357.038V178.254H355.998V177.215H354.959V176.175H353.92V175.136H351.841V174.096H350.802V173.057H349.762V172.018H347.683V170.978H346.644V169.939H344.565V168.9H343.526V167.86H341.447V166.821H340.408V165.781H338.329V164.742H336.25V163.703H335.211V162.663H333.132V161.624H331.053V160.584H328.975V159.545H326.896V158.506H324.817V157.466H322.738V156.427H322.478H319.88H319.62V155.388H317.541V154.348H317.282H314.683H314.423V153.309H314.163H311.565H311.305V152.269H311.045H308.447H308.187V151.23H307.927H305.329H305.069V150.191H304.809H301.171H300.911V149.151H300.651L297.014 149.151H296.754V148.112H296.494H291.817H291.557V147.073H291.297H285.58H285.321V146.033H285.061H273.108H272.848V144.994H272.588H260.635H260.375V146.033H260.116H248.163H247.903V147.073H247.643H241.926H241.667V148.112H241.407H236.729H236.47V149.151H236.21H231.533H231.273V150.191H231.013H228.414H228.155V151.23H227.895H224.257H223.997V152.269H223.737H221.139H220.879V153.309H218.8V154.348H218.54H215.942H215.682V155.388H215.422H212.824H212.564V156.427H210.485V157.466H208.406V158.506H206.328V159.545H204.249V160.584H202.17V161.624H200.091V162.663C199.831 162.663 199.225 162.663 198.272 162.663H198.013V163.703H195.934V164.742H194.894V165.781C194.635 165.781 194.028 165.781 193.075 165.781H192.816V166.821H190.737V167.86H189.697V168.9H187.619V169.939H186.579V170.978H184.501V172.018H183.461V173.057H182.422V174.096H180.343V175.136H179.304V176.175H178.264V177.215H177.225V178.254H176.185V179.293H174.107V180.333H173.067V181.372H172.028V182.411H170.989V183.451H169.949V184.49H168.91V185.53H167.87V186.569H166.831V187.608H165.792V188.648H164.752V189.687H163.713V190.727H162.674V191.766H161.634V192.805H160.595V193.845H159.555V195.923H158.516V196.963H157.477V198.002H156.437V199.042H155.398V201.12H154.358V202.16H153.319V203.199H152.28V202.16H151.24V201.12H150.201V199.042H149.162V198.002H148.122V196.963H147.083V195.923H146.043V193.845H145.004V192.805H143.965V191.766H142.925V190.727H141.886V189.687H140.847V187.608H139.807V186.569H138.768V185.53H137.728V184.49H136.689V182.411H135.65V181.372H134.61V180.333H133.571V179.293H132.531V177.215H131.492V176.175H130.453V175.136H129.413V173.057H128.374V172.018H127.335V170.978H126.295V169.939H125.256V167.86H124.216V166.821H123.177V165.781H122.138V163.703H121.098V162.663H120.059V161.624H119.02V159.545H117.98V158.506H116.941V157.466H115.901V155.388H114.862V154.348H113.823V153.309H112.783V151.23H111.744V150.191H110.704V149.151H109.665V147.073H108.626V146.033H107.586V143.954H106.547V142.915H105.508V141.876H104.468V139.797H103.429V138.757H102.389V136.679H101.35V135.639H100.311V133.561H99.2713V132.521H98.2319V130.442H97.1925V129.403H96.1531V127.324H95.1138V126.285H94.0744V124.206H93.035V123.167H91.9956V121.088H90.9562V120.049H89.9169V117.97H88.8775V115.891H87.8381V114.852H86.7987C86.7987 114.592 86.7987 113.986 86.7987 113.033V112.773H85.7593V110.694H84.7199V109.655H83.6806V107.576H82.6412V105.497H81.6018V103.419H80.5624V101.34H79.523V99.261H78.4837V97.1822H77.4443V95.1035H76.4049V93.0247H75.3655V90.9459H74.3261V90.6861V88.0876V87.8278H73.2868V85.749H72.2474V85.4892V82.8907V82.6309H71.208V82.3711V79.7726V79.5128H70.1686V79.2529V76.6545V76.3946H69.1292V76.1348V72.4969V72.2371H68.0898V71.9772V53.7881V53.5282H69.1292V53.2684V49.6305V49.3707H70.1686V49.1108V46.5124V46.2526H71.208V45.9927V43.3943V43.1344H72.2474V41.0556H73.2868V38.9769H74.3261C74.3261 38.717 74.3261 38.1107 74.3261 37.158V36.8981H75.3655V34.8194H76.4049V33.78H77.4443V32.7406H78.4837V30.6618H79.523V29.6225H80.5624V28.5831H81.6018V27.5437H82.6412V26.5043H83.6806V24.4255H84.7199V23.3862H86.7987V22.3468H87.8381V21.3074H88.8775V20.268H89.9169V19.2286H90.9562V18.1893H91.9956V17.1499H94.0744V16.1105H95.1138V15.0711H97.1925V14.0317H98.2319V12.9924H100.311V11.953H101.35V10.9136H103.429V9.87421C103.689 9.87421 104.295 9.87421 105.248 9.87421H105.508V8.83483H107.586V7.79544H108.626V6.75606H108.886H111.484H111.744V5.71668H113.823V4.6773H115.901V3.63792H117.98V2.59854H118.24H120.838H121.098V1.55916H121.358H123.957H124.216V0.519775ZM491.118 43.1344V44.1738H490.079V45.2132H488V46.2526H486.96V47.2919H485.921V49.3707H484.882V49.8904V88.8672H485.921V90.9459H486.96V91.9853H488V93.0247H490.079V94.0641H490.598C491.291 94.0641 491.811 94.0641 492.157 94.0641V95.1035H492.677H529.575V94.0641H531.654V93.0247H532.693V91.9853H533.733V90.9459H534.772V89.9066H535.811V87.8278H536.851V50.9298V50.4101H535.811V48.3313H534.772V47.2919H533.733V46.2526H532.693V45.2132H531.654V44.1738H529.575V43.1344H491.638H491.118ZM491.118 114.852V115.891H489.039V116.93H488V117.97H486.96V119.009H485.921V121.088H484.882V121.608V160.584H485.921V161.624H486.96V163.703H488V164.742H490.079V165.781H490.598C491.291 165.781 491.811 165.781 492.157 165.781V166.821H492.677H529.575V165.781H531.654V164.742H532.693V163.703H533.733V162.663H534.772V161.624H535.811V159.545H536.851V122.647V122.127H535.811V120.049H534.772V117.97H533.733V116.93H531.654V115.891H530.615V114.852H491.638H491.118ZM493.197 186.569V187.608H490.598H490.079V188.648H489.039V189.687H488V190.727H486.96V191.766H485.921V193.845H484.882V194.364V232.302H485.921V234.381H486.96V235.42H488V236.459H489.039V237.499H491.118V238.538H491.638H530.615V237.499H532.693V236.459H533.733V235.42H534.772V233.341H535.811C535.811 232.302 535.811 231.609 535.811 231.262H536.851V195.404V194.884H535.811V192.286V191.766H534.772V190.727H533.733V189.687H532.693V188.648H530.615V187.608H528.536V186.569H493.716H493.197ZM491.118 255.168V256.208H489.039V257.247H488V258.286H486.96V259.326H485.921V261.404H484.882V261.924V300.901H485.921V301.94H486.96V304.019H488V305.058H490.079V306.098H490.598C491.291 306.098 491.811 306.098 492.157 306.098V307.137H492.677H529.575V306.098H531.654V305.058L532.693 305.058V304.019H533.733V302.98H534.772V301.94H535.811V299.862H536.851V262.964V262.444H535.811V260.365H534.772V258.286H533.733V257.247L531.654 257.247V256.208H530.615V255.168H491.638H491.118ZM493.197 322.728V323.767H490.598H490.079V324.807H489.039V325.846H488V326.885H486.96V327.925H485.921V330.004H484.882V330.523V368.461H485.921V370.54H486.96V371.579H488V372.618H489.039V373.658H491.118V374.697H491.638H530.615V373.658L532.693 373.658V372.618H533.733V371.579H534.772V369.5H535.811C535.811 368.461 535.811 367.768 535.811 367.421H536.851V331.563V331.043H535.811V328.445V327.925H534.772V326.885H533.733V325.846H532.693V324.807L531.654 324.807V323.767H529.055H528.536V322.728H493.716H493.197ZM491.118 391.327V392.367H489.039V393.406H488V394.445H486.96V395.485H485.921V397.563H484.882V398.083V437.06H485.921V438.099H486.96V440.178H488V441.217H490.079V442.257H490.598C491.291 442.257 491.811 442.257 492.157 442.257V443.296H492.677H529.575V442.257H531.654V441.217L532.693 441.217V440.178H533.733V439.139H534.772V438.099H535.811V436.021H536.851V399.122V398.603H535.811V396.524H534.772V394.445H533.733V393.406L531.654 393.406V392.367H530.615V391.327H491.638H491.118ZM493.197 458.887V459.926H490.598H490.079V460.966H489.039V462.005H488V463.044H486.96V464.084H485.921L485.921 466.163H484.882V466.682V504.62H485.921V506.698H486.96V507.738H488V508.777H489.039V509.817H491.118V510.856H491.638H530.615V509.817L532.693 509.817V508.777H533.733V507.738H534.772V505.659H535.811C535.811 504.62 535.811 503.927 535.811 503.58H536.851V467.722V467.202H535.811V464.604V464.084H534.772V463.044H533.733V462.005H532.693V460.966L531.654 460.966V459.926H529.055H528.536V458.887H493.716H493.197Z" fill="white" stroke="white" stroke-width="1.03938"/>
</svg>
