<svg width="439" height="2076" viewBox="0 0 439 2076" fill="none" xmlns="http://www.w3.org/2000/svg">
<path d="M1.24442 1021H1.55553H65.6432H65.9543V1022.24H67.1987V1023.49H68.4431V1024.73H68.7542H361.815H362.126V1025.98H362.437H374.259H374.571V1024.73H374.882H379.237H379.548V1025.98H379.859H436.48C436.792 1025.87 436.895 1025.98 436.792 1026.29V1039.36V1039.67H438.036V1040.91H436.792V1041.22L436.792 1855.69V1856.01H438.036V1856.32V1860.67V1860.98H436.792V1861.29V2073.47V2073.78H435.547V2075.02H435.236H413.459H413.148V2073.78H411.903V2072.54H413.148V2072.22V2069.11V2068.8H414.392V2068.49V2054.18V2053.87H413.148C413.148 2053.56 413.148 2052.83 413.148 2051.69V2051.38H411.903V2048.89H411.592H408.481H408.17V2047.65H407.859H381.104H380.793V2048.89H379.548V2050.14H377.059V2050.45V2053.56V2053.87H375.815V2054.18V2068.49V2068.8H377.059V2069.11V2072.22V2072.54H378.304V2073.78H375.815V2075.02H375.504H371.148H370.837V2073.78H369.593V2072.54H368.348V2071.29H368.037H364.926H364.615V2070.05H363.371V2071.29H362.126V2070.05H361.815H340.038H339.727V2071.29H337.238V2070.05H336.927H333.816H333.505V2071.29H333.194H326.349H326.038V2070.05H325.727H322.616H322.305V2071.29H321.994H153.375H153.064V2070.05H151.819V2071.29H151.508H144.664H144.353V2070.05H144.042H140.931H140.62V2071.29H140.308H133.464H133.153V2070.05H131.909V2071.29H129.42V2070.05H126.931V2071.29H126.62H123.509H123.198V2070.05H122.887H111.065H110.753V2071.29H109.509V2070.05H109.198H61.2877C60.9766 2070.15 60.8729 2070.05 60.9766 2069.74C60.9766 2068.59 60.9766 2067.87 60.9766 2067.56H62.221V2067.25V2064.14V2063.82H60.9766V2062.58H62.221V2062.27V2055.42V2055.11H60.9766V2052.62H59.7322V2050.14H58.4878V2048.89H58.1767H55.0656H54.7545V2047.65H54.4434H43.8658H43.5547V2048.89H42.3103V2047.65H41.0659V2048.89H40.7548H33.9105H33.5994V2047.65H32.3549V2048.89H32.0438H27.6884H27.3772V2050.14H24.8884V2050.45V2053.56V2053.87H23.644V2054.18V2068.49C23.7477 2068.8 23.644 2068.91 23.3329 2068.8C22.1922 2068.8 21.4663 2068.8 21.1551 2068.8V2070.05H19.9107V2068.8H18.6663V2070.05H16.1775V2068.8H15.8664H7.77763H7.46652L7.46652 2070.05H6.2221L6.2221 2068.8H3.73326V2070.05H2.48884V2068.8H1.24442V2068.49L1.24442 1028.78V1028.47H0L0 1028.16L0 1025.04L0 1024.73H1.24442V1024.42L1.24442 1021.31V1021ZM384.526 1037.18V1038.42H381.415H380.793V1039.67H379.548V1042.16H378.304V1042.78V1062.07H379.548V1063.31H382.037V1064.55H382.659H409.414V1063.31H411.903V1062.07H413.148V1060.82H414.392V1041.53V1040.91H413.148V1039.67H411.903V1038.42H410.659V1037.18H385.148H384.526ZM29.8661 1038.42V1039.67H27.3772V1040.91H26.1328V1041.53V1044.64H24.8884V1047.13H26.1328V1047.76L26.1328 1062.07H27.3772V1063.31H29.8661V1064.55H30.4883H59.7322V1063.31H60.9766V1060.82H62.221V1042.78V1042.16H60.9766V1039.67H58.4878V1038.42H30.4883H29.8661ZM68.4431 1050.87V1052.11H67.1987V1053.35H65.9543V1053.98L65.9543 1277.35H67.1987V1278.6H68.4431V1279.84H69.0653H368.348C368.348 1278.6 368.348 1277.77 368.348 1277.35H369.593V1053.98V1053.35H368.348V1052.11H367.104V1050.87H69.0653H68.4431ZM33.5994 1096.91V1098.15H29.2439H28.6217V1099.4H27.3772V1100.64H26.1328V1103.13H24.8884V1103.75L24.8884 1118.06H26.1328V1118.69V1121.8H27.3772V1123.04H29.8661V1124.29H30.4883H58.4878V1123.04H60.9766V1120.55H62.221V1101.27V1100.64H60.9766V1099.4H58.4878V1098.15H47.9102H47.288V1096.91H44.1769H43.5547V1098.15H35.466H34.8438V1096.91H33.5994ZM383.281 1096.91V1098.15H380.793V1099.4H379.548V1100.64H378.304V1101.27V1104.38H377.059V1105V1108.11H378.304V1108.73V1120.55H379.548V1121.8H380.793V1123.04H382.037V1124.29H382.659H408.17V1123.04H408.792H411.903V1121.8H413.148V1120.55H414.392V1101.27V1100.64H413.148V1098.15H410.659V1096.91H383.904H383.281ZM31.1105 1156.64V1157.89H28.6217V1159.13H27.3772V1160.38H26.1328V1161V1164.11H24.8884V1164.73V1177.8H26.1328V1178.42L26.1328 1181.53H27.3772V1182.77H29.8661V1184.02H30.4883H58.4878V1182.77H59.7322V1181.53H60.9766V1180.29H62.221V1161V1160.38H60.9766V1159.13H59.7322V1157.89H56.6211H55.9989V1156.64H31.7327H31.1105ZM382.037 1156.64V1157.89H379.548V1160.38H378.304V1161V1165.35H377.059V1165.97V1170.33H378.304V1171.57H377.059V1174.06H378.304V1174.69V1180.29H379.548V1181.53H380.793V1182.77H383.281V1184.02H383.904H408.17V1182.77H408.792H411.903V1181.53H413.148V1180.29H414.392V1159.75V1159.13H413.148V1157.89H410.659V1156.64H382.659H382.037ZM428.081 1177.8V1179.04H426.836C426.836 1179.46 426.836 1180.29 426.836 1181.53H416.259H415.636V1182.77H416.881V1185.26H415.636V1186.51H416.881V1187.75H419.37V1189H420.614V1190.24H421.859V1191.49H423.103V1192.73H424.347V1193.97H426.836V1195.22H427.458H430.569V1192.73H429.325V1190.24H430.569V1187.75H429.325V1185.26H430.569V1184.02H431.814V1181.53H430.569C430.569 1180.29 430.569 1179.46 430.569 1179.04H429.325V1177.8H428.081ZM14.933 1179.04C14.933 1179.46 14.933 1180.29 14.933 1181.53H5.59989H4.97768V1182.15V1185.26H6.2221V1186.51H7.46652V1187.75H8.71094V1189H9.95536V1190.24H11.1998V1191.49H12.4442V1192.73H13.6886V1193.97H14.3108H17.4219V1185.89C17.4219 1185.47 17.6293 1185.26 18.0441 1185.26C18.8737 1185.26 19.4959 1185.26 19.9107 1185.26V1182.77H18.6663V1181.53H17.4219L17.4219 1179.04H14.933ZM29.8661 1216.37V1217.62H27.3772V1218.86H26.1328V1219.49V1222.6H24.8884V1223.22V1237.53H26.1328V1240.02H27.3772V1241.26H28.6217V1242.51H31.1105V1243.75H31.7327H57.2433V1242.51H59.7322V1241.26H60.9766V1238.77H62.221V1220.73V1220.11H60.9766V1218.86H59.7322V1217.62H56.6211H55.9989V1216.37H30.4883H29.8661ZM382.037 1216.37V1217.62H379.548V1218.86H378.304V1219.49V1223.84H377.059V1224.46V1235.04H378.304V1235.66V1240.02H379.548V1241.26H380.793V1242.51H381.415H410.659V1241.26H411.903V1240.02H413.148V1238.77H414.392V1219.49V1218.86H413.148V1217.62H411.903V1216.37H382.659H382.037ZM385.77 1274.86V1276.11H381.415H380.793V1277.35H379.548V1278.6H378.304V1279.22V1282.33H377.059V1282.95V1294.77H378.304V1295.39V1299.75H379.548V1300.99H382.037V1302.24H382.659H410.659V1300.99H411.903V1299.75H413.148V1298.51H414.392V1279.22V1278.6H413.148V1277.35H411.903V1276.11H409.414V1274.86H395.103H394.481V1276.11H388.881H388.259V1274.86H385.77ZM29.8661 1276.11V1277.35H27.3772V1278.6H26.1328V1281.08H24.8884V1281.71V1297.26H26.1328V1299.75H27.3772V1300.99H28.6217V1302.24H29.2439H32.3549V1303.48H32.9771H55.9989V1302.24H58.4878V1300.99H59.7322V1299.75H60.9766V1298.51H62.221V1280.46V1279.84H60.9766V1278.6H59.7322V1277.35H58.4878V1276.11H30.4883H29.8661ZM67.1987 1305.97V1307.22H65.9543V1307.84L65.9543 1532.46H67.1987V1533.7H67.8209H368.348L368.348 1532.46H369.593V1307.84V1307.22H368.348V1305.97H67.8209H67.1987ZM31.1105 1334.59V1335.84H28.6217V1337.08H27.3772V1338.33H26.1328V1339.57H24.8884V1340.19V1356.99H26.1328V1359.48H27.3772V1360.73H28.6217V1361.97H29.2439H36.0882V1363.22H36.7104H41.0659V1361.97H41.6881H48.5324V1363.22H49.1546H54.7545V1361.97H55.3767H58.4878V1360.73H60.9766V1358.24H62.221L62.221 1340.19V1339.57H60.9766V1337.08H58.4878V1335.84H57.2433V1334.59H31.7327H31.1105ZM382.037 1334.59V1335.84H380.793V1337.08H379.548V1338.33H378.304V1338.95V1342.06H377.059V1342.68V1354.5H378.304V1355.13V1359.48H379.548V1360.73H382.037V1361.97H382.659H409.414V1360.73H411.903V1359.48H413.148V1358.24H414.392V1338.95V1338.33H413.148V1337.08H411.903V1335.84H409.414V1334.59H382.659H382.037ZM390.748 1393.08V1394.33H382.659H382.037V1395.57H379.548V1396.81H378.304V1397.44V1400.55H377.059V1401.17V1414.24H378.304V1414.86V1417.97H379.548V1419.21H380.793V1420.46H383.281V1421.7H383.904H409.414V1420.46H411.903V1419.21H413.148V1416.73H414.392V1397.44V1396.81H413.148V1395.57H411.903V1394.33H407.548H406.925V1393.08H391.37H390.748ZM31.1105 1394.33V1395.57H28.6217V1396.81H26.1328V1399.3H24.8884V1399.93V1416.73H26.1328V1419.21H27.3772V1420.46H29.8661V1421.7H30.4883H57.2433V1420.46H59.7322V1419.21H60.9766V1416.73H62.221V1399.93V1399.3H60.9766V1398.06H59.7322V1396.81H58.4878V1395.57H57.2433V1394.33H31.7327H31.1105ZM426.836 1422.95V1424.19H424.347V1425.44H421.236H420.614V1426.68H419.37V1427.3V1430.41H421.859V1431.66H422.481H425.592V1432.9H428.081V1434.15H429.325V1431.66H428.081V1430.41H426.836V1427.3V1426.68H428.081V1425.44H429.325V1422.95H426.836ZM425.592 1436.64V1437.88H419.992H419.37V1438.5V1445.35H421.859V1444.1H420.614V1440.99V1440.37H421.859V1439.13H423.103V1439.75V1442.86H425.592V1439.75V1439.13H428.081V1440.37H429.325V1437.88H428.081V1436.64H425.592ZM428.081 1441.61V1442.24V1445.35H426.836V1446.59H429.325V1442.24V1441.61H428.081ZM384.526 1452.81V1454.06H381.415H380.793V1455.3H379.548V1456.55H378.304V1459.04H377.059V1459.66V1473.97H378.304V1474.59V1477.7H379.548V1478.95H380.793V1480.19H381.415H384.526V1481.44H385.148H389.504V1480.19H390.748V1481.44H391.37H406.925V1480.19H407.548H410.659V1478.95H411.903V1477.7H413.148V1476.46H414.392V1457.17V1456.55H413.148V1455.3H411.903V1454.06H409.414V1452.81H385.148H384.526ZM29.8661 1454.06V1455.3H27.3772V1456.55H26.1328V1459.04H24.8884V1459.66V1476.46H26.1328V1478.95H27.3772V1480.19H29.8661V1481.44H30.4883H57.2433V1480.19H58.4878V1478.95H59.7322V1477.7H60.9766V1476.46H62.221L62.221 1459.66V1459.04H60.9766V1456.55H59.7322V1455.3H58.4878V1454.06H30.4883H29.8661ZM424.347 1457.79V1459.04H423.103V1459.66V1468.99H424.347V1467.75H425.592V1458.41V1457.79H424.347ZM425.592 1467.75V1468.37V1476.46H426.836V1477.08V1483.92H428.081V1475.84V1475.21H426.836V1468.37V1467.75H425.592ZM421.859 1468.99V1469.61V1476.46H420.614V1477.08V1482.68H419.37V1483.3V1491.39H419.992H429.325V1484.55V1483.92H428.081V1484.55V1490.15H422.481H421.859V1478.32V1477.7H423.103V1469.61V1468.99H421.859ZM38.577 1512.55V1513.79H29.2439H28.6217V1515.03H26.1328V1517.52H24.8884V1518.15V1536.19H26.1328V1538.68H27.3772V1539.92H29.8661V1541.17H30.4883H55.9989V1539.92H58.4878V1538.68H59.7322V1537.43H60.9766V1536.19H62.221V1518.15V1517.52H60.9766V1516.28H59.7322V1515.03H58.4878V1513.79H54.1323H53.5101V1512.55H52.2657V1513.79H47.9102H47.288V1512.55H39.1992H38.577ZM382.037 1512.55V1513.79H379.548V1515.03H378.304V1515.66V1518.77H377.059V1519.39L377.059 1536.19H378.304V1537.43H379.548V1538.68H380.793V1539.92H381.415H391.992V1541.17H394.481V1539.92H395.103H409.414V1538.68H411.903V1537.43H413.148V1536.19H414.392L414.392 1516.9V1516.28H413.148V1515.03H411.903V1513.79H409.414V1512.55H382.659H382.037ZM69.6875 1561.08V1562.32H67.1987V1563.57H65.9543V1564.19L65.9543 1664.37H64.7099V1665.61H65.9543V1666.23V1671.83H64.7099V1674.32H65.9543V1674.94V1688.01H64.7099V1688.63V1691.74H65.9543V1692.36V1748.99H64.7099V1751.47H65.9543V1752.1V1788.81H67.1987V1790.05H67.8209H368.348C368.348 1788.81 368.348 1787.98 368.348 1787.56H369.593V1562.95V1562.32H367.104V1561.08H70.3098H69.6875ZM31.1105 1572.28V1573.52H27.9995H27.3772V1574.77H26.1328V1576.01H24.8884V1576.63V1595.92H26.1328V1598.41H28.6217V1599.66H29.2439C30.0735 1599.66 30.6957 1599.66 31.1105 1599.66V1600.9H32.3549V1599.66H33.5994V1600.9H34.2216H55.9989V1599.66H58.4878V1598.41H59.7322V1597.17H60.9766L60.9766 1595.92H62.221V1577.88V1577.26H60.9766V1576.01H59.7322V1574.77H58.4878V1573.52H55.3767H54.7545V1572.28H31.7327H31.1105ZM382.037 1572.28V1573.52H379.548V1574.77H378.304V1577.26H377.059V1577.88V1594.68H378.304V1597.17H379.548V1598.41H382.037V1599.66H382.659H409.414V1598.41H411.903V1597.17H413.148V1595.92H414.392V1576.63V1576.01H413.148V1574.77H411.903V1573.52H410.659V1572.28H382.659H382.037ZM387.015 1630.77V1632.01H381.415H380.793V1633.25H379.548V1634.5H378.304V1635.74H377.059V1636.37V1654.41H378.304V1656.9H379.548V1658.14H382.037V1659.39H382.659H409.414V1658.14H411.903V1656.9H413.148V1655.65H414.392V1636.37V1635.74H413.148V1634.5H411.903V1633.25H410.659V1632.01H408.17V1630.77H387.637H387.015ZM29.8661 1632.01V1633.25H27.3772V1634.5H26.1328V1635.74H24.8884V1636.37V1655.65H26.1328V1658.14H28.6217V1659.39H29.2439H57.2433V1658.14H59.7322V1656.9H60.9766V1654.41H62.221V1637.61V1636.99H60.9766V1634.5H59.7322V1633.25H57.2433V1632.01H30.4883H29.8661ZM426.836 1654.41V1655.65H424.347V1656.9H421.859V1655.65H418.747H418.125V1656.9H416.881V1658.14H415.636V1658.77V1666.85H416.881V1669.34H417.503H420.614V1666.85H419.37V1665.61H418.125V1660.01V1659.39H418.747H421.859V1660.63H423.103V1663.12H421.859V1664.37H422.481H425.592V1658.77V1658.14H426.214H429.325V1660.63H430.569V1661.88H431.814V1659.39H430.569V1656.28V1655.65H429.325V1654.41H426.836ZM13.6886 1655.65V1656.9H6.84431H6.2221V1658.14H4.97768V1660.63H3.73326V1661.25L3.73326 1666.85H4.97768L4.97768 1669.34H5.59989H8.71094V1664.99V1664.37H7.46652V1661.88H8.71094V1660.63H9.95536V1661.25V1664.37H10.5776H13.6886V1661.25V1660.63H16.1775V1661.25V1666.85H14.933V1669.34H16.1775V1670.59H17.4219V1669.34H18.6663V1666.85H19.9107V1662.5V1661.88H18.6663V1657.52V1656.9H17.4219V1655.65H14.3108H13.6886ZM430.569 1663.12V1664.37H431.814V1663.12H430.569ZM429.325 1665.61V1666.85H428.081V1669.34H430.569V1666.85H431.814V1665.61H429.325ZM384.526 1690.5V1691.74H381.415H380.793V1692.99H378.304V1695.48H377.059V1696.1V1714.14H378.304V1715.39H379.548V1716.63H380.793V1717.88H381.415H410.659V1716.63H411.903V1715.39H413.148V1714.14H414.392V1696.1V1695.48H413.148V1692.99H411.903V1691.74H407.548H406.925V1690.5H385.148H384.526ZM28.6217 1691.74V1692.99H27.3772L27.3772 1694.23H26.1328V1695.48H24.8884V1696.1V1715.39H26.1328V1716.63H27.3772V1717.88H29.8661V1719.12H30.4883H55.9989V1717.88H58.4878V1716.63H59.7322V1715.39H60.9766V1712.9H62.221V1698.59V1697.96H60.9766V1695.48H59.7322V1692.99H58.4878V1691.74H29.2439H28.6217ZM382.037 1750.23V1751.47H380.793V1752.72H378.304V1755.21H377.059V1755.83V1773.87H378.304V1775.12H379.548V1776.36H380.793V1777.61H381.415H410.659V1776.36H411.903V1775.12H413.148V1772.63H414.392V1755.83V1755.21H413.148V1752.72H411.903V1751.47H409.414V1750.23H382.659H382.037ZM28.6217 1751.47V1752.72H26.1328V1753.96H24.8884V1754.59L24.8884 1761.43H23.644V1762.05V1770.14H24.8884V1770.76V1775.12H26.1328V1776.36H27.3772V1777.61H27.9995H32.3549V1778.85H32.9771H37.3326V1777.61H37.9548H44.7991V1778.85H45.4213H54.7545V1777.61H55.3767H58.4878V1776.36H59.7322V1775.12H60.9766V1772.63H62.221V1758.32V1757.7H60.9766V1754.59V1753.96H59.7322V1752.72H57.2433V1751.47H29.2439H28.6217ZM382.037 1809.96V1811.21H379.548V1812.45H378.304V1813.7H377.059V1814.32V1833.61H378.304V1834.85H379.548V1836.1H382.037V1837.34H382.659H409.414V1836.1H411.903V1834.85H413.148V1832.36H414.392V1815.56V1814.94H413.148V1812.45H411.903V1811.21H409.414V1809.96H382.659H382.037ZM27.3772 1811.21V1812.45H26.1328V1813.7H24.8884V1814.32V1817.43H23.644V1818.05L23.644 1832.36H24.8884V1834.85H26.1328V1836.1H27.3772V1837.34H27.9995H58.4878V1836.1H59.7322V1834.85H60.9766V1832.36H62.221V1818.05V1817.43H60.9766V1814.32V1813.7H59.7322V1812.45H58.4878V1811.21H27.9995H27.3772ZM67.1987 1816.18V1817.43H65.9543V1818.05V1843.56H64.7099V1844.81H65.9543V1845.43V1848.54H64.7099V1849.16V1852.27H65.9543V1852.9V1870.94H64.7099V1871.56V1874.67H65.9543V1875.29V1902.05H64.7099V1902.67L64.7099 1933.16H65.9543V1933.78V1949.34H64.7099V1949.96V1996.63H65.9543V1997.25V2001.6H64.7099V2002.23V2038.94H65.9543V2039.56V2043.91H66.5765H368.348V2042.67H369.593V1819.3V1818.67H368.348V1816.18H67.8209H67.1987ZM31.1105 1869.69V1870.94H27.9995H27.3772V1872.18H26.1328V1873.43H24.8884V1875.92H23.644V1876.54L23.644 1892.09H24.8884V1894.58H26.1328V1895.83H27.3772V1897.07H27.9995H57.2433V1895.83H59.7322V1893.34H60.9766V1890.23V1889.61H62.221V1876.54V1875.92H60.9766V1873.43H59.7322V1872.18H58.4878V1870.94H55.9989V1869.69H31.7327H31.1105ZM380.793 1869.69V1870.94H379.548V1872.18H378.304V1873.43H377.059V1874.05V1892.09H378.304V1894.58H379.548V1895.83H380.17H383.281V1897.07H383.904H408.17V1895.83H410.659V1894.58H411.903V1893.34H413.148V1890.85H414.392V1875.29V1874.67H413.148V1872.18H411.903V1870.94H410.659V1869.69H381.415H380.793ZM426.836 1905.78V1907.03H423.725H423.103V1908.27H419.992H419.37V1909.52H418.125V1912.01H419.37V1913.25H421.859V1914.49H422.481H425.592V1915.74H426.214H429.325V1914.49H426.836V1908.89V1908.27H428.081V1907.03H429.325V1905.78H426.836ZM420.614 1919.47V1920.72H419.37V1921.96H418.125V1922.58V1925.69H419.37V1928.18H421.859V1925.69H420.614C420.614 1924.45 420.614 1923.62 420.614 1923.2H421.236H424.347V1925.69H425.592V1926.94H426.836V1928.18C427.251 1928.18 428.081 1928.18 429.325 1928.18V1920.09V1919.47H428.081V1920.09V1924.45H425.592V1921.96H424.347V1920.72H423.103V1919.47H420.614ZM28.6217 1929.43V1930.67H26.1328V1933.16H24.8884V1934.4H23.644V1935.03L23.644 1951.83H24.8884V1954.32H26.1328V1955.56H27.3772V1956.8H27.9995H57.2433V1955.56H59.7322V1953.07H60.9766V1947.47V1946.85H62.221V1942.49V1941.87H60.9766V1939.38H62.221V1936.89H60.9766V1933.78V1933.16H59.7322V1931.92H58.4878V1930.67H55.9989V1929.43H29.2439H28.6217ZM380.793 1929.43V1930.67H378.304V1933.16H377.059V1933.78V1951.83H378.304V1954.32H379.548V1955.56H380.17H384.526V1956.8H385.148H408.17V1955.56H410.659V1954.32H411.903V1953.07H413.148V1951.83H414.392V1933.78V1933.16H413.148V1931.92H411.903V1930.67H409.414V1929.43H381.415H380.793ZM423.103 1939.38V1940V1948.09H421.859V1948.72V1954.32H420.614V1954.94V1963.03H419.37V1963.65V1971.74H418.125V1972.98H418.747H429.325V1971.74H421.236H420.614V1964.89V1964.27H421.859V1956.18V1955.56H423.103V1949.96V1949.34H424.347V1949.96V1953.07H425.592V1953.69V1960.54H426.836V1952.45V1951.83H425.592V1944.98V1944.36H424.347V1940V1939.38H423.103ZM426.836 1960.54V1961.16V1970.49H428.081V1961.16V1960.54H426.836ZM32.3549 1987.91V1989.16H27.9995H27.3772V1990.4H26.1328V1991.65H24.8884V1994.14H23.644V1994.76V2011.56H24.8884L24.8884 2014.05H26.1328V2015.29H27.3772V2016.54H27.9995H55.9989V2015.29H58.4878V2014.05H59.7322V2011.56H60.9766V2007.2V2006.58H62.221V1998.49V1997.87H60.9766V1993.51V1992.89H59.7322V1990.4H58.4878V1989.16H55.3767H54.7545V1987.91H44.1769H43.5547V1989.16H40.4437H39.8215V1987.91H32.9771H32.3549ZM382.037 1987.91V1989.16H379.548V1990.4H378.304V1991.65H377.059V1992.27V2011.56H378.304V2014.05H380.793V2015.29H381.415H410.659V2014.05H411.903V2012.8H413.148V2010.31H414.392V1993.51V1992.89H413.148V1991.65H411.903V1990.4H410.659V1989.16H409.414V1987.91H382.659H382.037Z" fill="#312A26"/>
<path d="M1.24442 0L1.55553 0L65.6432 0L65.9543 0V1.24442L67.1987 1.24442V2.48884H68.4431V3.73326H68.7542L361.815 3.73326H362.126V4.97768H362.437L374.259 4.97768H374.571V3.73326H374.882L379.237 3.73326H379.548V4.97768H379.859L436.48 4.97768C436.792 4.87398 436.895 4.97768 436.792 5.28879V18.3552V18.6663H438.036V19.9107H436.792V20.2218L436.792 834.695V835.006H438.036V835.317V839.673V839.984H436.792V840.295V1052.47V1052.78H435.547V1054.02H435.236H413.459H413.148V1052.78H411.903V1051.54H413.148V1051.22V1048.11V1047.8H414.392V1047.49V1033.18V1032.87H413.148C413.148 1032.56 413.148 1031.83 413.148 1030.69V1030.38H411.903V1027.89H411.592H408.481H408.17V1026.65H407.859H381.104H380.793V1027.89H379.548V1029.14H377.059V1029.45V1032.56V1032.87H375.815V1033.18V1047.49V1047.8H377.059V1048.11V1051.22V1051.54H378.304V1052.78H375.815V1054.02H375.504H371.148H370.837V1052.78H369.593V1051.54H368.348V1050.29H368.037H364.926H364.615V1049.05H363.371V1050.29H362.126V1049.05H361.815H340.038H339.727V1050.29H337.238V1049.05H336.927H333.816H333.505V1050.29H333.194H326.349H326.038V1049.05H325.727H322.616H322.305V1050.29H321.994H153.375H153.064V1049.05H151.819V1050.29H151.508H144.664H144.353V1049.05H144.042H140.931H140.62V1050.29H140.308H133.464H133.153V1049.05H131.909V1050.29H129.42V1049.05H126.931V1050.29H126.62H123.509H123.198V1049.05H122.887H111.065H110.753V1050.29H109.509V1049.05H109.198H61.2877C60.9766 1049.15 60.8729 1049.05 60.9766 1048.74C60.9766 1047.59 60.9766 1046.87 60.9766 1046.56H62.221V1046.25V1043.14V1042.82H60.9766V1041.58H62.221V1041.27V1034.42V1034.11H60.9766V1031.62H59.7322V1029.14H58.4878V1027.89H58.1767H55.0656H54.7545V1026.65H54.4434H43.8658H43.5547V1027.89H42.3103V1026.65H41.0659V1027.89H40.7548H33.9105H33.5994V1026.65H32.3549V1027.89H32.0438H27.6884H27.3772V1029.14H24.8884V1029.45V1032.56V1032.87H23.644V1033.18V1047.49C23.7477 1047.8 23.644 1047.91 23.3329 1047.8C22.1922 1047.8 21.4663 1047.8 21.1551 1047.8V1049.05H19.9107V1047.8H18.6663V1049.05H16.1775V1047.8H15.8664H7.77763H7.46652L7.46652 1049.05H6.2221L6.2221 1047.8H3.73326V1049.05H2.48884V1047.8H1.24442V1047.49L1.24442 7.77763V7.46652H0L0 7.15542L0 4.04437L0 3.73326H1.24442V3.42216L1.24442 0.311105V0ZM384.526 16.1775V17.4219H381.415H380.793V18.6663L379.548 18.6663V21.1551H378.304V21.7774V41.0659H379.548V42.3103H382.037V43.5547H382.659H409.414V42.3103H411.903V41.0659H413.148V39.8215H414.392V20.5329V19.9107H413.148V18.6663H411.903V17.4219H410.659V16.1775L385.148 16.1775H384.526ZM29.8661 17.4219V18.6663H27.3772V19.9107H26.1328V20.5329V23.644H24.8884V26.1328H26.1328V26.755L26.1328 41.0659H27.3772V42.3103H29.8661V43.5547H30.4883H59.7322V42.3103H60.9766V39.8215H62.221V21.7774V21.1551L60.9766 21.1551V18.6663H58.4878V17.4219L30.4883 17.4219H29.8661ZM68.4431 29.8661V31.1105H67.1987V32.3549H65.9543V32.9771L65.9543 256.351H67.1987V257.595H68.4431V258.839H69.0653L368.348 258.839C368.348 257.595 368.348 256.765 368.348 256.351H369.593V32.9771V32.3549H368.348V31.1105H367.104V29.8661L69.0653 29.8661H68.4431ZM33.5994 75.9096V77.1541H29.2439H28.6217V78.3985H27.3772V79.6429H26.1328V82.1317H24.8884V82.754L24.8884 97.0648H26.1328V97.687V100.798H27.3772V102.042H29.8661V103.287H30.4883L58.4878 103.287V102.042H60.9766V99.5536H62.221V80.2651V79.6429H60.9766V78.3985H58.4878V77.1541L47.9102 77.1541H47.288V75.9096H44.1769H43.5547V77.1541H35.466H34.8438V75.9096H33.5994ZM383.281 75.9096V77.1541H380.793V78.3985H379.548V79.6429H378.304V80.2651V83.3762H377.059V83.9984V87.1094H378.304V87.7316V99.5536H379.548V100.798H380.793V102.042H382.037V103.287H382.659H408.17V102.042H408.792H411.903V100.798H413.148V99.5536H414.392V80.2651V79.6429H413.148V77.1541H410.659V75.9096H383.904H383.281ZM31.1105 135.642V136.886H28.6217V138.131H27.3772V139.375H26.1328V139.997V143.108H24.8884V143.731V156.797H26.1328V157.419L26.1328 160.53H27.3772V161.775H29.8661V163.019H30.4883H58.4878V161.775H59.7322V160.53H60.9766V159.286H62.221V139.997V139.375H60.9766V138.131H59.7322V136.886H56.6211H55.9989V135.642H31.7327H31.1105ZM382.037 135.642V136.886H379.548V139.375H378.304V139.997V144.353H377.059V144.975V149.33H378.304V150.575H377.059V153.064H378.304V153.686V159.286H379.548V160.53H380.793V161.775H383.281V163.019H383.904H408.17V161.775H408.792H411.903V160.53H413.148V159.286H414.392V138.753V138.131H413.148V136.886H410.659V135.642H382.659H382.037ZM428.081 156.797V158.041H426.836C426.836 158.456 426.836 159.286 426.836 160.53H416.259H415.636V161.775H416.881V164.263H415.636V165.508H416.881V166.752H419.37V167.997H420.614V169.241H421.859V170.486H423.103V171.73H424.347V172.974H426.836V174.219H427.458H430.569V171.73H429.325V169.241H430.569V166.752H429.325V164.263H430.569V163.019H431.814V160.53H430.569C430.569 159.286 430.569 158.456 430.569 158.041H429.325V156.797H428.081ZM14.933 158.041C14.933 158.456 14.933 159.286 14.933 160.53H5.59989H4.97768V161.152V164.263H6.2221V165.508H7.46652V166.752H8.71094V167.997H9.95536V169.241H11.1998V170.486H12.4442V171.73H13.6886V172.974H14.3108H17.4219V164.886C17.4219 164.471 17.6293 164.263 18.0441 164.263C18.8737 164.263 19.4959 164.263 19.9107 164.263V161.775H18.6663V160.53H17.4219L17.4219 158.041H14.933ZM29.8661 195.374V196.618H27.3772V197.863H26.1328V198.485V201.596H24.8884V202.218V216.529H26.1328V219.018H27.3772V220.262H28.6217V221.507H31.1105V222.751H31.7327H57.2433V221.507H59.7322V220.262H60.9766V217.774H62.221V199.729V199.107H60.9766V197.863H59.7322V196.618H56.6211H55.9989V195.374H30.4883H29.8661ZM382.037 195.374V196.618H379.548V197.863H378.304V198.485V202.841H377.059V203.463V214.04H378.304V214.663V219.018H379.548V220.262H380.793V221.507H381.415H410.659V220.262H411.903V219.018H413.148V217.774H414.392V198.485V197.863H413.148V196.618H411.903V195.374H382.659H382.037ZM385.77 253.862V255.106H381.415H380.793V256.351H379.548V257.595H378.304V258.217V261.328H377.059V261.95V273.772H378.304V274.395V278.75H379.548V279.995H382.037V281.239H382.659H410.659V279.995H411.903V278.75H413.148V277.506H414.392V258.217V257.595H413.148V256.351H411.903V255.106H409.414V253.862H395.103H394.481V255.106H388.881H388.259V253.862H385.77ZM29.8661 255.106V256.351H27.3772V257.595H26.1328V260.084H24.8884V260.706V276.261H26.1328V278.75H27.3772V279.995H28.6217V281.239H29.2439H32.3549V282.483H32.9771H55.9989V281.239H58.4878V279.995H59.7322V278.75H60.9766V277.506H62.221V259.462V258.839H60.9766V257.595H59.7322V256.351H58.4878V255.106H30.4883H29.8661ZM67.1987 284.972V286.217H65.9543V286.839L65.9543 511.457H67.1987V512.701H67.8209H368.348L368.348 511.457H369.593V286.839V286.217H368.348V284.972L67.8209 284.972H67.1987ZM31.1105 313.594V314.838H28.6217V316.083H27.3772V317.327H26.1328V318.572H24.8884V319.194V335.994H26.1328V338.482H27.3772V339.727H28.6217V340.971H29.2439H36.0882V342.216H36.7104H41.0659V340.971H41.6881H48.5324V342.216H49.1546H54.7545V340.971H55.3767H58.4878V339.727H60.9766V337.238H62.221L62.221 319.194V318.572H60.9766V316.083H58.4878V314.838H57.2433V313.594H31.7327H31.1105ZM382.037 313.594V314.838H380.793V316.083H379.548V317.327H378.304V317.949V321.06H377.059V321.683V333.505H378.304V334.127V338.482H379.548V339.727H382.037V340.971H382.659H409.414V339.727H411.903V338.482H413.148V337.238H414.392V317.949V317.327H413.148V316.083H411.903V314.838H409.414V313.594H382.659H382.037ZM390.748 372.082V373.326H382.659H382.037V374.571H379.548V375.815H378.304V376.437V379.548H377.059V380.17V393.237H378.304V393.859V396.97H379.548V398.215H380.793V399.459H383.281V400.703H383.904H409.414V399.459H411.903V398.215H413.148V395.726H414.392V376.437V375.815H413.148V374.571H411.903V373.326H407.548H406.925V372.082H391.37H390.748ZM31.1105 373.326V374.571H28.6217V375.815H26.1328V378.304H24.8884V378.926V395.726H26.1328V398.215H27.3772V399.459H29.8661V400.703H30.4883H57.2433V399.459H59.7322V398.215H60.9766V395.726H62.221V378.926V378.304H60.9766V377.059H59.7322V375.815H58.4878V374.571H57.2433V373.326H31.7327H31.1105ZM426.836 401.948V403.192H424.347V404.437H421.236H420.614V405.681H419.37V406.303V409.414H421.859V410.659H422.481H425.592V411.903H428.081V413.148H429.325V410.659H428.081V409.414H426.836V406.303V405.681H428.081V404.437H429.325V401.948H426.836ZM425.592 415.636V416.881H419.992H419.37V417.503V424.347H421.859V423.103H420.614V419.992V419.37H421.859V418.125H423.103V418.747V421.859H425.592V418.747V418.125H428.081V419.37H429.325V416.881H428.081V415.636H425.592ZM428.081 420.614V421.236V424.347H426.836V425.592H429.325V421.236V420.614H428.081ZM384.526 431.814V433.058H381.415H380.793V434.303H379.548V435.547H378.304V438.036H377.059V438.658V452.969H378.304V453.591V456.702H379.548V457.947H380.793V459.191H381.415H384.526V460.436H385.148H389.504V459.191H390.748V460.436H391.37H406.925V459.191H407.548H410.659V457.947H411.903V456.702H413.148V455.458H414.392V436.169V435.547H413.148V434.303H411.903V433.058H409.414V431.814H385.148H384.526ZM29.8661 433.058V434.303H27.3772V435.547H26.1328V438.036H24.8884V438.658V455.458H26.1328V457.947H27.3772V459.191H29.8661V460.436H30.4883H57.2433V459.191H58.4878V457.947H59.7322V456.702H60.9766V455.458H62.221L62.221 438.658V438.036H60.9766V435.547H59.7322V434.303H58.4878V433.058H30.4883H29.8661ZM424.347 436.792V438.036H423.103V438.658V447.991H424.347V446.747H425.592V437.414V436.792H424.347ZM425.592 446.747V447.369V455.458H426.836V456.08V462.924H428.081V454.836V454.213H426.836V447.369V446.747H425.592ZM421.859 447.991V448.614V455.458H420.614V456.08V461.68H419.37V462.302V470.391H419.992H429.325V463.547V462.924H428.081V463.547V469.146H422.481H421.859V457.325V456.702H423.103V448.614V447.991H421.859ZM38.577 491.546V492.79H29.2439H28.6217V494.035H26.1328V496.524H24.8884V497.146V515.19H26.1328V517.679H27.3772V518.923H29.8661V520.168H30.4883H55.9989V518.923H58.4878V517.679H59.7322V516.434H60.9766V515.19H62.221V497.146V496.524H60.9766V495.279H59.7322V494.035H58.4878V492.79H54.1323H53.5101V491.546H52.2657V492.79H47.9102H47.288V491.546H39.1992H38.577ZM382.037 491.546V492.79H379.548V494.035H378.304V494.657V497.768H377.059V498.39L377.059 515.19H378.304V516.434H379.548V517.679H380.793V518.923H381.415H391.992V520.168L394.481 520.168V518.923H395.103H409.414V517.679H411.903V516.434H413.148V515.19H414.392L414.392 495.902V495.279H413.148V494.035H411.903V492.79H409.414V491.546H382.659H382.037ZM69.6875 540.078V541.323H67.1987V542.567H65.9543V543.19L65.9543 643.365H64.7099V644.61H65.9543V645.232V650.832H64.7099V653.321H65.9543V653.943V667.009H64.7099V667.632V670.743H65.9543V671.365V727.986H64.7099V730.475H65.9543V731.097V767.807H67.1987V769.052H67.8209H368.348C368.348 767.807 368.348 766.978 368.348 766.563H369.593V541.945V541.323H367.104V540.078H70.3098H69.6875ZM31.1105 551.278V552.523H27.9995H27.3772V553.767H26.1328V555.012H24.8884V555.634V574.922H26.1328V577.411H28.6217V578.655H29.2439C30.0735 578.655 30.6957 578.655 31.1105 578.655V579.9H32.3549V578.655H33.5994V579.9H34.2216H55.9989V578.655H58.4878V577.411H59.7322V576.167H60.9766L60.9766 574.922H62.221V556.878V556.256H60.9766V555.012H59.7322V553.767H58.4878V552.523H55.3767H54.7545V551.278H31.7327H31.1105ZM382.037 551.278V552.523H379.548V553.767H378.304V556.256H377.059V556.878V573.678H378.304V576.167H379.548V577.411H382.037V578.655H382.659L409.414 578.655V577.411H411.903V576.167H413.148V574.922H414.392V555.634V555.012H413.148V553.767H411.903V552.523H410.659V551.278L382.659 551.278H382.037ZM387.015 609.766V611.01H381.415H380.793V612.255H379.548V613.499H378.304V614.744H377.059V615.366V633.41H378.304V635.899H379.548V637.143H382.037V638.388H382.659L409.414 638.388V637.143H411.903V635.899H413.148V634.654H414.392V615.366V614.744H413.148V613.499H411.903V612.255H410.659V611.01H408.17V609.766L387.637 609.766H387.015ZM29.8661 611.01V612.255H27.3772V613.499H26.1328V614.744H24.8884V615.366V634.654H26.1328V637.143H28.6217V638.388H29.2439H57.2433V637.143H59.7322V635.899H60.9766V633.41H62.221V616.61V615.988H60.9766V613.499H59.7322V612.255H57.2433V611.01H30.4883H29.8661ZM426.836 633.41V634.654H424.347V635.899H421.859V634.654H418.747H418.125V635.899H416.881V637.143H415.636V637.765V645.854H416.881V648.343H417.503H420.614V645.854H419.37V644.61H418.125V639.01V638.388H418.747H421.859V639.632H423.103V642.121H421.859V643.365H422.481H425.592V637.765V637.143H426.214H429.325V639.632H430.569V640.877H431.814V638.388H430.569V635.277V634.654H429.325V633.41H426.836ZM13.6886 634.654V635.899H6.84431H6.2221V637.143H4.97768V639.632H3.73326V640.254L3.73326 645.854H4.97768L4.97768 648.343H5.59989H8.71094V643.988V643.365H7.46652V640.877H8.71094V639.632H9.95536V640.254V643.365H10.5776H13.6886V640.254V639.632H16.1775V640.254V645.854H14.933V648.343H16.1775V649.587H17.4219V648.343H18.6663V645.854H19.9107V641.499V640.877H18.6663V636.521V635.899H17.4219V634.654H14.3108H13.6886ZM430.569 642.121V643.365H431.814V642.121H430.569ZM429.325 644.61V645.854H428.081V648.343H430.569V645.854H431.814V644.61H429.325ZM384.526 669.498V670.743H381.415H380.793V671.987H378.304V674.476H377.059V675.098V693.142H378.304V694.387H379.548V695.631H380.793V696.875H381.415L410.659 696.875V695.631H411.903V694.387H413.148V693.142H414.392V675.098V674.476H413.148V671.987H411.903V670.743H407.548H406.925V669.498L385.148 669.498H384.526ZM28.6217 670.743V671.987H27.3772L27.3772 673.231H26.1328V674.476H24.8884V675.098V694.387H26.1328V695.631H27.3772V696.875H29.8661V698.12H30.4883H55.9989V696.875H58.4878V695.631H59.7322V694.387H60.9766V691.898H62.221V677.587V676.965H60.9766V674.476H59.7322V671.987H58.4878V670.743H29.2439H28.6217ZM382.037 729.23V730.475H380.793V731.719H378.304V734.208H377.059V734.83V752.874H378.304V754.119H379.548V755.363H380.793V756.608H381.415L410.659 756.608V755.363H411.903V754.119H413.148V751.63H414.392V734.83V734.208H413.148V731.719H411.903V730.475H409.414V729.23L382.659 729.23H382.037ZM28.6217 730.475V731.719H26.1328V732.964H24.8884V733.586L24.8884 740.43H23.644V741.052V749.141H24.8884V749.763V754.119H26.1328V755.363H27.3772V756.608H27.9995H32.3549V757.852H32.9771H37.3326V756.608H37.9548H44.7991V757.852H45.4213H54.7545V756.608H55.3767H58.4878V755.363H59.7322V754.119H60.9766V751.63H62.221V737.319V736.697H60.9766V733.586V732.964H59.7322V731.719H57.2433V730.475H29.2439H28.6217ZM382.037 788.963V790.207H379.548V791.451H378.304V792.696H377.059V793.318V812.607H378.304V813.851H379.548V815.095H382.037V816.34H382.659L409.414 816.34V815.095H411.903V813.851H413.148V811.362H414.392V794.562V793.94H413.148V791.451H411.903V790.207H409.414V788.963L382.659 788.963H382.037ZM27.3772 790.207V791.451H26.1328V792.696H24.8884V793.318V796.429H23.644V797.051L23.644 811.362H24.8884V813.851H26.1328V815.095H27.3772V816.34H27.9995H58.4878V815.095H59.7322V813.851H60.9766V811.362H62.221V797.051V796.429H60.9766V793.318V792.696H59.7322V791.451H58.4878V790.207H27.9995H27.3772ZM67.1987 795.185V796.429H65.9543V797.051V822.562H64.7099V823.806H65.9543V824.429V827.54H64.7099V828.162V831.273H65.9543V831.895V849.939H64.7099V850.561V853.672H65.9543V854.295V881.05H64.7099V881.672L64.7099 912.16H65.9543V912.782V928.338H64.7099V928.96V975.626H65.9543V976.248V980.603H64.7099V981.225V1017.94H65.9543V1018.56V1022.91H66.5765H368.348V1021.67H369.593V798.296V797.673H368.348V795.185H67.8209H67.1987ZM31.1105 848.695V849.939H27.9995H27.3772V851.184H26.1328V852.428H24.8884V854.917H23.644V855.539L23.644 871.094H24.8884V873.583H26.1328V874.828H27.3772V876.072H27.9995H57.2433V874.828H59.7322V872.339H60.9766V869.228V868.605H62.221V855.539V854.917H60.9766V852.428H59.7322V851.184H58.4878V849.939H55.9989V848.695H31.7327H31.1105ZM380.793 848.695V849.939H379.548V851.184H378.304V852.428H377.059V853.05V871.094H378.304V873.583H379.548V874.828H380.17H383.281V876.072H383.904L408.17 876.072V874.828H410.659V873.583H411.903V872.339H413.148V869.85H414.392V854.295V853.672H413.148V851.184H411.903V849.939H410.659V848.695L381.415 848.695H380.793ZM426.836 884.783V886.027H423.725H423.103V887.272H419.992H419.37V888.516H418.125V891.005H419.37V892.249H421.859V893.494H422.481H425.592V894.738H426.214H429.325V893.494H426.836V887.894V887.272H428.081V886.027H429.325V884.783H426.836ZM420.614 898.472V899.716H419.37V900.96H418.125V901.583V904.694H419.37V907.182H421.859V904.694H420.614C420.614 903.449 420.614 902.62 420.614 902.205H421.236H424.347V904.694H425.592V905.938H426.836V907.182C427.251 907.182 428.081 907.182 429.325 907.182V899.094V898.472H428.081V899.094V903.449H425.592V900.96H424.347V899.716H423.103V898.472H420.614ZM28.6217 908.427V909.671H26.1328V912.16H24.8884V913.405H23.644V914.027L23.644 930.826H24.8884V933.315H26.1328V934.56H27.3772V935.804H27.9995H57.2433V934.56H59.7322V932.071H60.9766V926.471V925.849H62.221V921.493V920.871H60.9766V918.382H62.221V915.893H60.9766V912.782V912.16H59.7322V910.916H58.4878V909.671H55.9989V908.427H29.2439H28.6217ZM380.793 908.427V909.671H378.304V912.16H377.059V912.782V930.826H378.304V933.315H379.548V934.56H380.17H384.526V935.804H385.148L408.17 935.804V934.56H410.659V933.315H411.903V932.071H413.148V930.826H414.392V912.782V912.16H413.148V910.916H411.903V909.671H409.414V908.427L381.415 908.427H380.793ZM423.103 918.382V919.004V927.093H421.859V927.715V933.315H420.614V933.938V942.026H419.37V942.648V950.737H418.125V951.982H418.747H429.325V950.737H421.236H420.614V943.893V943.271H421.859V935.182V934.56H423.103V928.96V928.338H424.347V928.96V932.071H425.592V932.693V939.537H426.836V931.449V930.826H425.592V923.982V923.36H424.347V919.004V918.382H423.103ZM426.836 939.537V940.16V949.493H428.081V940.16V939.537H426.836ZM32.3549 966.915V968.159H27.9995H27.3772V969.403H26.1328V970.648H24.8884V973.137H23.644V973.759V990.559H24.8884L24.8884 993.047H26.1328V994.292H27.3772V995.536H27.9995H55.9989V994.292H58.4878V993.047H59.7322V990.559H60.9766V986.203V985.581H62.221V977.492V976.87H60.9766V972.515V971.892H59.7322V969.403H58.4878V968.159H55.3767H54.7545V966.915H44.1769H43.5547V968.159H40.4437H39.8215V966.915H32.9771H32.3549ZM382.037 966.915V968.159H379.548V969.403H378.304V970.648H377.059V971.27V990.559H378.304V993.047H380.793V994.292H381.415L410.659 994.292V993.047H411.903V991.803H413.148V989.314H414.392V972.515V971.892H413.148V970.648H411.903V969.403H410.659V968.159H409.414V966.915L382.659 966.915H382.037Z" fill="#312A26"/>
</svg>
