<svg width="82" height="82" viewBox="0 0 82 82" fill="none" xmlns="http://www.w3.org/2000/svg">
<path d="M77.3504 23.1231C81.6868 32.1927 82.5101 42.547 79.6612 52.1878C76.8123 61.8286 70.4932 70.0724 61.9236 75.3282C53.354 80.5839 43.1413 82.479 33.2565 80.6477C23.3718 78.8164 14.5158 73.3886 8.39774 65.4117C2.27965 57.4348 -0.666796 47.4745 0.127055 37.4529C0.920906 27.4314 5.39878 18.0592 12.6965 11.145C19.9941 4.23088 29.5943 0.265002 39.644 0.0128092C49.6938 -0.239384 59.4807 3.23998 67.116 9.77939L75.9715 0.920012C76.5579 0.333635 77.3532 0.00421194 78.1824 0.00421194C79.0117 0.00421194 79.807 0.333635 80.3934 0.920012C80.9797 1.50639 81.3092 2.30169 81.3092 3.13095C81.3092 3.96021 80.9797 4.75551 80.3934 5.34189L42.8934 42.8419C42.307 43.4283 41.5117 43.7577 40.6824 43.7577C39.8532 43.7577 39.0579 43.4283 38.4715 42.8419C37.8851 42.2555 37.5557 41.4602 37.5557 40.6309C37.5557 39.8017 37.8851 39.0064 38.4715 38.42L49.2996 27.5919C46.3651 25.6511 42.8614 24.7575 39.3557 25.0557C35.8501 25.354 32.5478 26.8267 29.9833 29.2353C27.4187 31.644 25.7422 34.8477 25.2251 38.3277C24.7079 41.8078 25.3804 45.3606 27.1337 48.4109C28.8869 51.4612 31.6183 53.8305 34.8857 55.1353C38.1531 56.4401 41.7653 56.6039 45.1374 55.6003C48.5095 54.5967 51.4442 52.4844 53.4664 49.6054C55.4887 46.7263 56.48 43.249 56.2801 39.7364C56.257 39.326 56.315 38.9151 56.4507 38.5271C56.5864 38.1392 56.7972 37.7817 57.0711 37.4752C57.3449 37.1687 57.6765 36.9192 58.0468 36.7408C58.4171 36.5624 58.8189 36.4587 59.2293 36.4356C60.0581 36.389 60.8715 36.6735 61.4905 37.2266C61.797 37.5005 62.0466 37.832 62.2249 38.2023C62.4033 38.5727 62.507 38.9745 62.5301 39.3849C62.815 44.3566 61.3949 49.2768 58.5046 53.3322C55.6144 57.3876 51.4268 60.3354 46.6342 61.6884C41.8416 63.0415 36.7308 62.7187 32.1464 60.7735C27.5621 58.8283 23.7787 55.3772 21.4215 50.9904C19.0644 46.6036 18.2746 41.5439 19.1827 36.6474C20.0907 31.751 22.6423 27.3109 26.4158 24.0611C30.1892 20.8113 34.9585 18.9463 39.9355 18.7743C44.9125 18.6024 49.7992 20.1337 53.7879 23.1153L62.6746 14.2286C56.1621 8.82156 47.8815 6.01127 39.4233 6.33749C30.965 6.66372 22.9255 10.1035 16.8488 15.996C10.7721 21.8886 7.08674 29.8186 6.50056 38.2628C5.91437 46.7071 8.46867 55.0702 13.6729 61.7459C18.8771 68.4216 26.3642 72.9391 34.6963 74.4309C43.0284 75.9227 51.6178 74.2835 58.815 69.8282C66.0121 65.3728 71.3094 58.4155 73.6894 50.2924C76.0695 42.1694 75.3645 33.4534 71.7098 25.8184C71.3523 25.0705 71.3067 24.2111 71.5829 23.4295C71.8591 22.6478 72.4344 22.0079 73.1824 21.6505C73.9304 21.2931 74.7898 21.2474 75.5714 21.5236C76.3531 21.7998 76.993 22.3751 77.3504 23.1231Z" fill="#A3A3A3"/>
</svg>
