<svg width="57" height="67" viewBox="0 0 57 67" fill="none" xmlns="http://www.w3.org/2000/svg">
<path d="M22.1667 6.33333C21.2694 6.33333 20.5179 6.02933 19.912 5.42133C19.3061 4.81333 19.0021 4.06178 19 3.16667C18.9979 2.27156 19.3019 1.52 19.912 0.912C20.5221 0.304 21.2737 0 22.1667 0H34.8333C35.7306 0 36.4832 0.304 37.0912 0.912C37.6992 1.52 38.0021 2.27156 38 3.16667C37.9979 4.06178 37.6939 4.81439 37.088 5.4245C36.4821 6.03461 35.7306 6.33756 34.8333 6.33333H22.1667ZM30.7578 40.2578C31.3637 39.6498 31.6667 38.8972 31.6667 38V25.3333C31.6667 24.4361 31.3627 23.6846 30.7547 23.0787C30.1467 22.4728 29.3951 22.1688 28.5 22.1667C27.6049 22.1646 26.8533 22.4686 26.2453 23.0787C25.6373 23.6888 25.3333 24.4403 25.3333 25.3333V38C25.3333 38.8972 25.6373 39.6498 26.2453 40.2578C26.8533 40.8658 27.6049 41.1688 28.5 41.1667C29.3951 41.1646 30.1477 40.8606 30.7578 40.2547M17.4578 64.2453C13.9998 62.7401 10.9778 60.6944 8.39167 58.1083C5.80556 55.5222 3.76095 52.5002 2.25784 49.0422C0.754727 45.5842 0.00211554 41.9034 4.4289e-06 38C-0.00210668 34.0966 0.750504 30.4148 2.25784 26.9547C3.76517 23.4946 5.80978 20.4736 8.39167 17.8917C10.9736 15.3098 13.9956 13.2652 17.4578 11.7578C20.9201 10.2505 24.6008 9.49789 28.5 9.5C31.7722 9.5 34.9125 10.0278 37.9208 11.0833C40.9292 12.1389 43.7528 13.6694 46.3917 15.675L48.6083 13.4583C49.1889 12.8778 49.9278 12.5875 50.825 12.5875C51.7222 12.5875 52.4611 12.8778 53.0417 13.4583C53.6222 14.0389 53.9125 14.7778 53.9125 15.675C53.9125 16.5722 53.6222 17.3111 53.0417 17.8917L50.825 20.1083C52.8306 22.7472 54.3611 25.5708 55.4167 28.5792C56.4722 31.5875 57 34.7278 57 38C57 41.9056 56.2474 45.5873 54.7422 49.0453C53.237 52.5033 51.1923 55.5243 48.6083 58.1083C46.0243 60.6923 43.0023 62.738 39.5422 64.2453C36.0821 65.7527 32.4013 66.5042 28.5 66.5C24.5987 66.4958 20.9201 65.7442 17.4578 64.2453ZM44.175 53.675C48.5028 49.3472 50.6667 44.1222 50.6667 38C50.6667 31.8778 48.5028 26.6528 44.175 22.325C39.8472 17.9972 34.6222 15.8333 28.5 15.8333C22.3778 15.8333 17.1528 17.9972 12.825 22.325C8.49723 26.6528 6.33334 31.8778 6.33334 38C6.33334 44.1222 8.49723 49.3472 12.825 53.675C17.1528 58.0028 22.3778 60.1667 28.5 60.1667C34.6222 60.1667 39.8472 58.0028 44.175 53.675Z" fill="#A3A3A3"/>
</svg>
